HIERARCHY
ROOT Hips
{
  OFFSET 267.745 86.9975 -272.335
  CHANNELS 6 Xposition Yposition Zposition Zrotation Xrotation Yrotation
  JOINT LeftUpLeg
  {
    OFFSET 8.64259 1.95398 -2.38835
    CHANNELS 3 Zrotation Xrotation Yrotation
    JOINT LeftLeg
    {
      OFFSET 43.7702 0 0
      CHANNELS 3 Zrotation Xrotation Yrotation
      JOINT LeftFoot
      {
        OFFSET 40.6238 0 0
        CHANNELS 3 Zrotation Xrotation Yrotation
        JOINT LeftToeBase
        {
          OFFSET 12.7242 0 0
          CHANNELS 3 Zrotation Xrotation Yrotation
          End Site
          {
            OFFSET 0 0 0
          }
        }
      }
    }
  }
  JOINT RightUpLeg
  {
    OFFSET -8.2249 1.95398 -2.59336
    CHANNELS 3 Zrotation Xrotation Yrotation
    JOINT RightLeg
    {
      OFFSET 43.5653 0 0
      CHANNELS 3 Zrotation Xrotation Yrotation
      JOINT RightFoot
      {
        OFFSET 40.6238 0 0
        CHANNELS 3 Zrotation Xrotation Yrotation
        JOINT RightToeBase
        {
          OFFSET 12.7242 0 0
          CHANNELS 3 Zrotation Xrotation Yrotation
          End Site
          {
            OFFSET 0 0 0
          }
        }
      }
    }
  }
  JOINT Spine
  {
    OFFSET 0.165834 0.87714 6.61349
    CHANNELS 3 Zrotation Xrotation Yrotation
    JOINT Spine1
    {
      OFFSET 7.38963 1.71661e-005 0
      CHANNELS 3 Zrotation Xrotation Yrotation
      JOINT Spine2
      {
        OFFSET 11.9445 1.14441e-005 0
        CHANNELS 3 Zrotation Xrotation Yrotation
        JOINT Spine3
        {
          OFFSET 14.7254 4.19617e-005 0
          CHANNELS 3 Zrotation Xrotation Yrotation
          JOINT Spine4
          {
            OFFSET 10.9679 0 0
            CHANNELS 3 Zrotation Xrotation Yrotation
            JOINT RightShoulder
            {
              OFFSET 2.46616 -1.6653 3.69651
              CHANNELS 3 Zrotation Xrotation Yrotation
              JOINT RightArm
              {
                OFFSET 13.0012 0 0
                CHANNELS 3 Zrotation Xrotation Yrotation
                JOINT RightForeArm
                {
                  OFFSET 28.7848 1.52588e-005 0
                  CHANNELS 3 Zrotation Xrotation Yrotation
                  JOINT RightHand
                  {
                    OFFSET 26.5688 1.52588e-005 0
                    CHANNELS 3 Zrotation Xrotation Yrotation
                    End Site
                    {
                      OFFSET 0 0 0
                    }
                  }
                }
              }
            }
            JOINT LeftShoulder
            {
              OFFSET 2.38034 -1.29275 -3.7523
              CHANNELS 3 Zrotation Xrotation Yrotation
              JOINT LeftArm
              {
                OFFSET 16.3182 6.10352e-005 0
                CHANNELS 3 Zrotation Xrotation Yrotation
                JOINT LeftForeArm
                {
                  OFFSET 27.0901 0 0
                  CHANNELS 3 Zrotation Xrotation Yrotation
                  JOINT LeftHand
                  {
                    OFFSET 24.5451 1.52588e-005 0
                    CHANNELS 3 Zrotation Xrotation Yrotation
                    End Site
                    {
                      OFFSET 0 0 0
                    }
                  }
                }
              }
            }
            JOINT Neck
            {
              OFFSET 5.0226 -0.0266342 0
              CHANNELS 3 Zrotation Xrotation Yrotation
              JOINT Head
              {
                OFFSET 6.69364 2.86102e-005 0
                CHANNELS 3 Zrotation Xrotation Yrotation
                End Site
                {
                  OFFSET 0 0 0
                }
              }
            }
          }
        }
      }
    }
  }
}
MOTION
Frames:	18
Frame Time:	0.0416667
77.6888 108.875 72.345 -104.115 52.3096 -75.7975 178.557 42.5601 97.8326 -11.4882 15.0791 2.2108 35.6823 -14.0139 -4.57166 43.0972 -1.56158 4.15242 169.124 -13.2022 83.1401 -51.6829 -12.9424 -1.11417 47.086 11.4839 25.3876 50.798 -5.15417 2.56189 1.64921 8.69518 -90.1597 9.49377 3.21646 -0.559972 -2.17339 3.1887 -0.701145 -24.7403 3.23589 0.43363 -4.72766 3.23588 0.433625 101.259 -23.9344 -84.2102 0.938618 13.9739 -42.3055 -4.55863 -3.37213 -47.8378 -6.52391 0.154516 -8.61849 -82.2228 -32.7446 88.533 13.5519 -14.3014 8.44185 -1.19984 4.38179 -0.00177286 4.17533 -0.37539 -9.34666 -13.244 1.33686 -11.2139 -15.28 0.285902 13.583 
62.2255 109.936 58.1401 -111.528 58.2267 -68.5583 -177.805 31.7861 99.6108 -7.87374 13.6237 2.6458 33.3072 -15.4457 -5.87111 34.0649 -0.729047 1.74642 171.049 -9.10812 73.7427 -84.9213 -8.53295 -5.39621 45.5977 10.3777 12.9157 45.0754 -3.96921 1.12082 1.93812 8.46839 -90.1041 9.95049 3.81553 -0.51335 -1.71501 3.78927 -0.681034 -24.2947 3.79314 0.658816 -4.28205 3.79316 0.658811 101.492 -20.1592 -83.7807 -4.96818 17.0175 -37.2296 -5.62561 -7.76966 -36.0172 -6.57427 0.157771 -8.62665 -80.5774 -27.1137 91.186 16.6993 -13.0357 18.5385 -1.33319 -5.14962 -4.715 8.65672 -0.553721 -9.19251 -18.4574 3.33552 -8.78091 -13.2371 2.14212 13.1723 
47.0245 106.884 44.2421 -112.837 61.3788 -62.7446 -177.02 25.0121 102.637 -8.94729 17.5601 5.06908 29.8605 -16.529 -9.2455 29.5554 -0.353363 2.43962 -179.765 -3.48676 73.533 -109.208 -16.2831 -4.69905 42.1607 11.1339 2.60255 40.1053 -2.75622 2.13724 1.85234 7.9936 -90.555 10.9138 3.43127 -1.42851 -0.75358 3.36508 -1.57827 -23.3246 3.70179 -0.329949 -3.31195 3.70179 -0.329952 101.516 -17.7948 -83.8047 -9.7405 18.1586 -27.5816 -7.92063 -11.5478 -33.6525 -5.66444 0.120471 -8.36049 -79.918 -22.7598 92.209 17.0419 -11.3865 27.6349 -2.26862 -9.21322 -9.12659 16.1574 -0.627054 -7.68899 -19.643 4.60158 -7.55193 -12.5554 3.39371 14.0937 
32.5082 99.8963 30.8877 -115.491 61.8682 -58.0301 -175.582 17.05 103.072 -14.1276 17.8967 3.70647 23.0922 -17.7401 -14.2313 33.9147 -0.695272 1.68265 -173.443 3.84735 71.3491 -126.153 -28.203 -2.28818 41.2061 12.7279 0.893488 49.1061 -4.86729 1.72228 1.71817 7.95403 -90.6475 10.989 3.12068 -1.59063 -0.679347 3.04766 -1.72652 -23.2433 3.45432 -0.578262 -3.23068 3.45433 -0.578258 101.512 -19.1787 -83.7705 -9.73714 22.633 -7.93993 -8.12879 -8.09018 -45.5381 -8.03966 0.0464198 -6.35881 -80.1735 -21.9161 91.6419 13.3941 -9.32371 33.6532 -4.1541 -10.5945 -17.6985 24.2254 -0.368063 -5.57323 -20.4252 5.4756 -9.76881 -11.3246 4.14492 16.9328 
20.3146 91.493 19.101 -116.063 56.9965 -58.7764 -175.577 18.956 97.145 -49.9195 27.0988 4.10164 57.7681 2.65935 20.6365 49.9523 -2.36157 0.0285582 -178.297 22.3043 72.0684 -134.923 -29.7934 -1.75225 39.8346 13.6163 3.91212 49.4949 -5.1828 -0.61134 0.93618 9.17927 -90.2819 8.5206 1.74358 -0.66711 -3.14938 1.71252 -0.743218 -25.6938 1.86343 -0.112083 -5.68117 1.86343 -0.112084 102.921 -29.9891 -80.5885 -8.89648 27.2593 16.9691 -6.42408 -6.21576 -66.8742 -9.34337 0.0471737 -6.06912 -77.418 -35.3886 97.6223 8.51154 -14.9473 24.8936 -6.81814 -13.1755 -31.8467 24.1017 -0.902433 -7.82046 -7.05988 5.84947 -8.13045 -10.8898 5.50451 16.4497 
10.6178 87.2328 7.92319 -110.185 49.7468 -72.2022 -179.26 12.5557 86.578 -58.6051 30.2155 3.94862 63.5318 14.077 34.2387 59.9268 -2.7839 4.5364 168.362 42.0469 82.9245 -121.988 -25.9533 -2.83043 47.2933 9.34764 4.52268 55.615 -6.2232 2.76182 -0.430276 10.0108 -89.0053 6.84379 -0.433121 1.96574 -4.8287 -0.346223 1.98289 -27.3544 -1.00374 1.74482 -7.34172 -1.00376 1.74482 105.614 -40.4586 -76.0399 15.0705 12.402 20.6288 -8.64657 -5.39746 -54.5542 -3.24701 0.0124676 -6.27237 -76.9553 -48.6571 98.2568 0.260348 -10.9808 -5.87209 -5.9955 -10.4844 -25.3334 17.0875 -0.792981 -8.5144 2.46487 5.42285 -12.0176 -13.5729 5.71488 18.9204 
-0.0664406 88.1416 -3.79946 -100.677 38.1709 -77.7408 175.057 5.19454 87.6495 -59.0194 31.3467 9.02865 65.5609 16.2408 31.8879 62.8206 -2.23712 8.59173 163.602 44.0311 94.1466 -80.533 -16.0746 1.44706 57.4398 4.84839 10.2703 55.4918 -6.1039 4.1219 -1.42938 9.97088 -89.5418 6.95794 -2.65818 1.01684 -4.71108 -2.61085 1.13288 -27.2666 -2.841 0.170422 -7.25398 -2.841 0.170413 107.604 -50.3382 -73.7301 27.6642 6.76399 19.967 -12.5163 -15.1036 -37.4241 -2.39097 -0.0177537 -5.02679 -83.2409 -53.4044 88.9726 -8.11333 -0.351156 -26.6184 0.990228 5.81008 -28.3604 10.1159 -0.815826 -11.0437 6.79256 4.28792 -14.4336 -17.7537 4.75875 19.2294 
-13.0665 88.808 -16.0092 -92.8816 30.385 -81.7898 172.175 -0.0911897 90.1856 -60.222 31.833 12.3945 62.2103 7.51918 18.5767 61.6788 -2.36458 7.45359 174.916 37.5544 88.1054 -25.8105 -10.1473 2.40786 39.1975 15.014 22.4766 76.3146 -6.10331 17.3841 -2.03947 9.61563 -90.3198 7.63661 -4.21103 -0.410978 -4.02746 -4.22503 -0.224918 -26.6111 -3.89252 -1.65944 -6.59848 -3.89251 -1.65945 107.659 -52.4163 -73.8542 34.5779 5.17814 22.1583 -4.03444 -6.07992 -34.8089 -5.73297 -0.0472541 -4.15309 -84.6573 -54.6727 87.0668 -8.04225 13.52 -36.7244 5.66752 7.56432 -44.1542 4.64113 -0.538132 -11.6094 11.381 2.90041 -15.7017 -20.6093 3.58892 20.6583 
-26.7415 85.8829 -27.7831 -95.2933 28.1226 -85.2198 173.804 -4.2814 87.8818 -68.5746 21.7748 8.52953 59.7139 5.89783 16.9504 55.0344 -1.53794 12.2223 169.892 39.6848 83.1556 -35.7883 -15.6084 6.70961 50.5161 9.61717 9.08752 21.3068 1.57547 1.85623 -1.98123 9.47188 -90.1246 7.93159 -4.0092 -0.0249194 -3.73317 -4.00641 0.151837 -26.3146 -3.81608 -1.23049 -6.302 -3.81609 -1.23048 106.328 -50.725 -75.7322 37.9924 -0.124285 27.9713 -10.3969 -10.7198 -38.8365 3.54304 -0.163669 -8.83465 -85.6553 -54.197 85.5744 -9.04409 18.9193 -39.826 4.61631 7.78685 -45.7439 1.6615 -0.325809 -11.0433 6.95562 2.42883 -13.4398 -18.5506 2.88746 17.255 
-37.2172 83.9371 -37.6437 -96.6767 32.2123 -78.2418 176.806 6.93666 95.4299 -89.8905 14.6131 5.2341 61.1757 8.69762 18.7805 55.4882 -1.89517 9.21416 166.052 40.9773 92.0046 -58.1422 -15.7921 5.5075 55.2727 7.71875 13.4821 32.2897 -1.03642 3.6096 -1.20089 9.96151 -91.1004 6.91554 -2.86993 -2.04321 -4.75372 -2.95703 -1.91489 -27.2912 -2.12349 -2.81116 -7.27857 -2.12347 -2.81115 104.153 -53.3215 -79.1923 28.2144 -4.5456 11.6695 -7.69701 -18.5176 -25.2436 3.50029 -0.0195192 -4.95004 -87.1482 -57.24 83.8761 -18.0621 9.62866 -37.9458 3.33651 15.9564 -27.5561 11.8564 -0.557152 -8.27844 11.4442 2.73813 -11.0544 -19.4827 2.76575 18.8367 
-46.796 86.4952 -46.6304 -96.9052 36.9574 -79.0554 177.437 24.599 90.0973 -87.1735 14.9459 3.78632 61.7188 9.95207 20.3327 60.4878 -2.23696 8.09349 167.238 32.4449 92.1217 -59.2478 -21.5455 6.11985 62.8939 -0.684234 -0.0500284 43.7484 -3.41822 6.80914 -0.687429 9.93552 -90.8454 6.99397 -1.73579 -1.58841 -4.67679 -1.804 -1.51049 -27.2088 -1.1783 -2.03653 -7.19614 -1.17829 -2.03654 102.211 -53.4804 -82.1034 21.0117 -5.01089 -6.80629 -3.22343 -27.4804 -13.1832 0.921117 0.00915364 -1.08313 -88.4074 -58.555 82.3351 -19.9618 2.67659 -32.0277 -0.485983 28.5961 -8.61047 11.7382 -0.059192 -3.91583 5.82412 2.24618 -12.9911 -16.6093 2.59023 19.0247 
-56.1565 90.2223 -55.811 -98.8251 41.285 -77.5618 178.839 31.7624 91.6797 -60.2339 15.0901 3.7699 63.9706 9.9554 18.1101 62.8052 -2.54492 6.83685 172.703 21.1617 92.4341 -55.8571 -15.7999 2.41755 61.9178 2.9898 9.37422 48.7909 -4.00155 10.0262 -0.187382 9.76883 -90.6049 7.33012 -0.635461 -1.16165 -4.34117 -0.685972 -1.13257 -26.8724 -0.256986 -1.2989 -6.85975 -0.256992 -1.29891 101.962 -52.4353 -82.477 17.8409 -11.7089 -13.2768 -1.85692 -13.5677 -21.676 -6.25213 -0.099033 -3.14277 -87.5323 -57.4967 83.3801 -18.0584 1.12217 -21.0639 -3.74799 32.77 -3.06692 3.91607 -0.183937 -6.33199 2.29368 2.18346 -12.2196 -17.1223 2.12192 17.3132 
-67.1349 92.1733 -65.7771 -100.136 40.8498 -78.1323 178.294 27.8139 92.2527 -20.5494 20.5932 2.2946 42.3459 -8.80487 0.651477 65.4809 -4.14692 -0.105516 176.33 5.03363 93.0213 -47.9855 -7.41297 -1.0835 69.3902 0.795598 14.5097 48.883 -4.5072 4.85053 -0.232813 9.27932 -90.281 8.31363 -0.588303 -0.520016 -3.35728 -0.610632 -0.493625 -25.8922 -0.404838 -0.67278 -5.87953 -0.404824 -0.672783 102.916 -52.4626 -81.0334 19.4824 -12.2878 -11.4154 -5.00995 -5.65128 -37.6875 -4.33166 0.0128604 -6.33618 -87.2816 -54.7797 83.3216 -17.9418 1.70291 -9.23355 -4.16166 38.3731 -3.40165 -0.64802 -0.128238 -6.87533 -0.949112 2.16297 -12.6015 -20.7012 1.33349 16.8406 
-78.3136 90.3747 -75.9641 -101.901 45.8035 -74.3349 -177.091 26.6831 95.5029 -13.1677 15.3456 0.889077 32.497 -13.1811 -7.02111 64.7329 -4.12764 -1.87056 178.875 -5.25047 95.1165 -46.82 -6.34519 -3.25264 66.0015 2.7547 15.6166 57.7959 -6.57326 3.37727 0.274399 8.47913 -90.3417 9.91609 0.391756 -0.713633 -1.75499 0.359995 -0.730194 -24.2897 0.58813 -0.562912 -4.27702 0.588121 -0.562904 103.56 -51.5492 -80.0341 22.7557 -13.6253 -8.54162 -6.3855 -1.91392 -48.5123 -5.05367 0.0850398 -8.07658 -86.7725 -51.9258 83.6262 -18.2605 2.74809 1.37534 -2.46212 36.3693 -7.71179 -8.99087 0.177255 -9.09615 -5.2948 3.07793 -13.0487 -21.4415 1.72555 16.7776 
-88.1541 86.8108 -84.2184 -106.898 44.742 -75.5024 -175.319 30.8845 87.9459 -45.1434 21.9677 -0.284101 53.7299 -0.948751 17.8985 35.4151 -0.450129 -7.05976 173.81 -9.75375 87.432 -58.3109 -7.56823 -3.46034 55.2781 7.88788 18.0214 47.0122 -3.84036 5.01399 -0.00784227 8.49293 -89.7402 9.89659 0.102192 0.524594 -1.77429 0.125194 0.519584 -24.3092 -0.0602032 0.531046 -4.29655 -0.0602059 0.531048 103.393 -53.2526 -80.3249 24.0659 -13.4133 -7.28848 -9.34694 -3.10836 -52.2807 -8.20515 0.0331549 -6.04822 -86.0123 -53.196 84.9154 -14.1358 0.207334 -2.06852 -4.4196 39.3397 -3.44807 -11.27 0.272528 -9.31995 -3.52514 3.01357 -13.8554 -21.6586 1.80542 17.3917 
-95.7961 85.3422 -90.6368 -109.857 47.5861 -76.5111 -171.778 26.8885 84.4249 -54.7109 22.0186 -2.04687 59.1624 6.68555 26.5088 45.9829 -2.09212 -5.17033 177.076 1.32755 83.261 -77.8965 -12.9394 -4.8019 49.0891 8.78428 9.26845 30.3478 -0.37544 -0.55 0.207117 8.47767 -89.3273 9.9111 0.718009 1.27377 -1.76037 0.77337 1.24094 -24.29 0.302046 1.43064 -4.27739 0.302033 1.43063 102.714 -54.0644 -81.3557 26.3488 -13.3547 -7.32764 -11.3949 -8.63417 -45.4218 -9.56794 -0.0802068 -4.40386 -85.4719 -55.9335 86.0546 -10.3401 -0.679857 -12.5202 -2.62463 40.3278 -4.69789 -3.08603 -0.0442103 -5.31915 -4.06042 3.13558 -11.0719 -20.8958 1.79413 16.7553 
-102.5 87.0858 -96.4246 -111.931 47.4696 -76.3062 -172.736 17.7074 82.5408 -52.9273 21.8784 -1.92463 61.6544 10.1594 29.9989 50.594 -2.62761 -2.53932 178.713 9.93915 84.1298 -84.8347 -12.6865 -4.71173 49.5969 8.58653 10.851 32.5099 -0.937218 0.22 -0.00165328 8.49362 -89.2532 9.88219 0.335594 1.45463 -1.78953 0.399285 1.43846 -24.3181 -0.117038 1.48824 -4.3055 -0.117043 1.48824 102.723 -54.7208 -81.35 27.1818 -13.6128 -8.29346 -11.0531 -17.9175 -33.4747 -6.71306 -0.104128 -3.65079 -84.687 -56.2121 87.1953 -9.89278 1.18188 -18.7064 4.00616 31.864 -16.1372 8.22664 -0.074719 -4.19945 -4.71901 4.03577 -8.92753 -21.2917 2.31687 17.022 
-108.596 90.1114 -101.725 -109.836 43.9631 -76.3649 -175.75 10.447 83.5476 -48.9007 22.223 0.240819 62.5243 9.77406 27.4355 51.4516 -2.58716 -0.648671 176.72 17.7842 87.5835 -77.1222 -12.0135 -3.07674 51.917 7.3533 10.6756 40.5947 -2.89475 2.37903 -0.483457 8.3213 -89.5967 10.2334 -0.779001 0.86851 -1.43763 -0.740012 0.901935 -23.9736 -1.00403 0.594236 -3.9609 -1.00399 0.594235 102.715 -54.7127 -81.3611 29.0672 -9.2024 -7.48744 -5.1647 -24.5293 -19.4242 -7.23985 -0.238462 -1.60383 -84.2587 -54.6979 87.6429 -9.69858 4.39369 -23.3877 8.13484 23.9358 -27.2708 7.28899 -0.328995 -7.29319 -3.83073 4.72321 -7.72711 -23.9779 2.68592 16.161 
